<mxfile host="app.diagrams.net" modified="2020-12-12T13:12:45.004Z" agent="5.0 (Macintosh; Intel Mac OS X 10_15_6) AppleWebKit/537.36 (KHTML, like Gecko) Chrome/86.0.4240.193 Safari/537.36" etag="2wleAiQT0qMXggXIA6q2" version="14.0.1" type="github">
  <diagram id="Fm3Vq3x_wtMWbXcccVqN" name="Page-1">
    <mxGraphModel dx="1113" dy="633" grid="1" gridSize="10" guides="1" tooltips="1" connect="1" arrows="1" fold="1" page="1" pageScale="1" pageWidth="827" pageHeight="1169" math="0" shadow="0">
      <root>
        <mxCell id="0" />
        <mxCell id="1" parent="0" />
        <mxCell id="g0MrRFJYeRkFoFixMZTk-9" value="" style="edgeStyle=orthogonalEdgeStyle;rounded=0;orthogonalLoop=1;jettySize=auto;html=1;sketch=1;" parent="1" source="g0MrRFJYeRkFoFixMZTk-1" target="g0MrRFJYeRkFoFixMZTk-8" edge="1">
          <mxGeometry relative="1" as="geometry" />
        </mxCell>
        <mxCell id="g0MrRFJYeRkFoFixMZTk-1" value="开始" style="rounded=1;whiteSpace=wrap;html=1;sketch=1;" parent="1" vertex="1">
          <mxGeometry x="320" y="60" width="120" height="60" as="geometry" />
        </mxCell>
        <mxCell id="g0MrRFJYeRkFoFixMZTk-2" value="结束" style="rounded=1;whiteSpace=wrap;html=1;sketch=1;" parent="1" vertex="1">
          <mxGeometry x="320" y="820" width="120" height="60" as="geometry" />
        </mxCell>
        <mxCell id="g0MrRFJYeRkFoFixMZTk-11" value="" style="edgeStyle=orthogonalEdgeStyle;rounded=0;orthogonalLoop=1;jettySize=auto;html=1;sketch=1;" parent="1" source="g0MrRFJYeRkFoFixMZTk-3" target="g0MrRFJYeRkFoFixMZTk-4" edge="1">
          <mxGeometry relative="1" as="geometry" />
        </mxCell>
        <mxCell id="g0MrRFJYeRkFoFixMZTk-17" style="edgeStyle=orthogonalEdgeStyle;rounded=0;orthogonalLoop=1;jettySize=auto;html=1;exitX=1;exitY=0.5;exitDx=0;exitDy=0;endArrow=none;endFill=0;sketch=1;" parent="1" source="g0MrRFJYeRkFoFixMZTk-3" edge="1">
          <mxGeometry relative="1" as="geometry">
            <mxPoint x="610" y="350" as="targetPoint" />
          </mxGeometry>
        </mxCell>
        <mxCell id="g0MrRFJYeRkFoFixMZTk-3" value="trx_id &amp;lt; min_trx_id" style="rhombus;whiteSpace=wrap;html=1;sketch=1;" parent="1" vertex="1">
          <mxGeometry x="300" y="300" width="160" height="100" as="geometry" />
        </mxCell>
        <mxCell id="g0MrRFJYeRkFoFixMZTk-12" value="" style="edgeStyle=orthogonalEdgeStyle;rounded=0;orthogonalLoop=1;jettySize=auto;html=1;sketch=1;" parent="1" source="g0MrRFJYeRkFoFixMZTk-4" target="g0MrRFJYeRkFoFixMZTk-6" edge="1">
          <mxGeometry relative="1" as="geometry" />
        </mxCell>
        <mxCell id="g0MrRFJYeRkFoFixMZTk-22" value="" style="edgeStyle=orthogonalEdgeStyle;rounded=0;orthogonalLoop=1;jettySize=auto;html=1;endArrow=classic;endFill=1;sketch=1;" parent="1" source="g0MrRFJYeRkFoFixMZTk-4" target="g0MrRFJYeRkFoFixMZTk-7" edge="1">
          <mxGeometry relative="1" as="geometry" />
        </mxCell>
        <mxCell id="g0MrRFJYeRkFoFixMZTk-4" value="trx_id &amp;gt;= max_trx_id" style="rhombus;whiteSpace=wrap;html=1;sketch=1;" parent="1" vertex="1">
          <mxGeometry x="300" y="440" width="160" height="100" as="geometry" />
        </mxCell>
        <mxCell id="g0MrRFJYeRkFoFixMZTk-14" value="" style="edgeStyle=orthogonalEdgeStyle;rounded=0;orthogonalLoop=1;jettySize=auto;html=1;sketch=1;" parent="1" source="g0MrRFJYeRkFoFixMZTk-5" target="g0MrRFJYeRkFoFixMZTk-2" edge="1">
          <mxGeometry relative="1" as="geometry" />
        </mxCell>
        <mxCell id="g0MrRFJYeRkFoFixMZTk-5" value="可见" style="rounded=0;whiteSpace=wrap;html=1;glass=0;sketch=1;" parent="1" vertex="1">
          <mxGeometry x="320" y="720" width="120" height="60" as="geometry" />
        </mxCell>
        <mxCell id="g0MrRFJYeRkFoFixMZTk-13" value="" style="edgeStyle=orthogonalEdgeStyle;rounded=0;orthogonalLoop=1;jettySize=auto;html=1;sketch=1;" parent="1" source="g0MrRFJYeRkFoFixMZTk-6" target="g0MrRFJYeRkFoFixMZTk-5" edge="1">
          <mxGeometry relative="1" as="geometry" />
        </mxCell>
        <mxCell id="g0MrRFJYeRkFoFixMZTk-20" style="edgeStyle=orthogonalEdgeStyle;rounded=0;orthogonalLoop=1;jettySize=auto;html=1;exitX=0;exitY=0.5;exitDx=0;exitDy=0;entryX=0.5;entryY=1;entryDx=0;entryDy=0;endArrow=classic;endFill=1;sketch=1;" parent="1" source="g0MrRFJYeRkFoFixMZTk-6" target="g0MrRFJYeRkFoFixMZTk-7" edge="1">
          <mxGeometry relative="1" as="geometry" />
        </mxCell>
        <mxCell id="g0MrRFJYeRkFoFixMZTk-6" value="trx_id是否在m_ids列表中" style="rhombus;whiteSpace=wrap;html=1;sketch=1;" parent="1" vertex="1">
          <mxGeometry x="220" y="580" width="320" height="100" as="geometry" />
        </mxCell>
        <mxCell id="g0MrRFJYeRkFoFixMZTk-23" style="edgeStyle=orthogonalEdgeStyle;rounded=0;orthogonalLoop=1;jettySize=auto;html=1;exitX=0.5;exitY=0;exitDx=0;exitDy=0;entryX=0;entryY=0.5;entryDx=0;entryDy=0;endArrow=classic;endFill=1;sketch=1;" parent="1" source="g0MrRFJYeRkFoFixMZTk-7" target="g0MrRFJYeRkFoFixMZTk-3" edge="1">
          <mxGeometry relative="1" as="geometry" />
        </mxCell>
        <mxCell id="g0MrRFJYeRkFoFixMZTk-7" value="回滚指针找上一版本" style="rounded=0;whiteSpace=wrap;html=1;sketch=1;" parent="1" vertex="1">
          <mxGeometry x="90" y="460" width="120" height="60" as="geometry" />
        </mxCell>
        <mxCell id="g0MrRFJYeRkFoFixMZTk-10" value="" style="edgeStyle=orthogonalEdgeStyle;rounded=0;orthogonalLoop=1;jettySize=auto;html=1;sketch=1;" parent="1" source="g0MrRFJYeRkFoFixMZTk-8" target="g0MrRFJYeRkFoFixMZTk-3" edge="1">
          <mxGeometry relative="1" as="geometry" />
        </mxCell>
        <mxCell id="g0MrRFJYeRkFoFixMZTk-15" style="edgeStyle=orthogonalEdgeStyle;rounded=0;orthogonalLoop=1;jettySize=auto;html=1;exitX=1;exitY=0.5;exitDx=0;exitDy=0;entryX=1;entryY=0.5;entryDx=0;entryDy=0;sketch=1;" parent="1" source="g0MrRFJYeRkFoFixMZTk-8" target="g0MrRFJYeRkFoFixMZTk-5" edge="1">
          <mxGeometry relative="1" as="geometry">
            <Array as="points">
              <mxPoint x="610" y="210" />
              <mxPoint x="610" y="740" />
            </Array>
          </mxGeometry>
        </mxCell>
        <mxCell id="g0MrRFJYeRkFoFixMZTk-8" value="trx_id = creator_trx_id" style="rhombus;whiteSpace=wrap;html=1;shadow=0;sketch=1;" parent="1" vertex="1">
          <mxGeometry x="300" y="160" width="160" height="100" as="geometry" />
        </mxCell>
        <mxCell id="g0MrRFJYeRkFoFixMZTk-16" value="是" style="text;html=1;strokeColor=none;fillColor=none;align=center;verticalAlign=middle;whiteSpace=wrap;rounded=0;" parent="1" vertex="1">
          <mxGeometry x="520" y="170" width="40" height="20" as="geometry" />
        </mxCell>
        <mxCell id="g0MrRFJYeRkFoFixMZTk-18" value="是" style="text;html=1;strokeColor=none;fillColor=none;align=center;verticalAlign=middle;whiteSpace=wrap;rounded=0;" parent="1" vertex="1">
          <mxGeometry x="520" y="310" width="40" height="20" as="geometry" />
        </mxCell>
        <mxCell id="g0MrRFJYeRkFoFixMZTk-19" value="否" style="text;html=1;strokeColor=none;fillColor=none;align=center;verticalAlign=middle;whiteSpace=wrap;rounded=0;" parent="1" vertex="1">
          <mxGeometry x="400" y="680" width="40" height="20" as="geometry" />
        </mxCell>
        <mxCell id="g0MrRFJYeRkFoFixMZTk-24" value="否" style="text;html=1;strokeColor=none;fillColor=none;align=center;verticalAlign=middle;whiteSpace=wrap;rounded=0;" parent="1" vertex="1">
          <mxGeometry x="400" y="270" width="40" height="20" as="geometry" />
        </mxCell>
        <mxCell id="g0MrRFJYeRkFoFixMZTk-25" value="否" style="text;html=1;strokeColor=none;fillColor=none;align=center;verticalAlign=middle;whiteSpace=wrap;rounded=0;" parent="1" vertex="1">
          <mxGeometry x="400" y="410" width="40" height="20" as="geometry" />
        </mxCell>
        <mxCell id="g0MrRFJYeRkFoFixMZTk-26" value="否" style="text;html=1;strokeColor=none;fillColor=none;align=center;verticalAlign=middle;whiteSpace=wrap;rounded=0;" parent="1" vertex="1">
          <mxGeometry x="400" y="550" width="40" height="20" as="geometry" />
        </mxCell>
        <mxCell id="g0MrRFJYeRkFoFixMZTk-27" value="是" style="text;html=1;strokeColor=none;fillColor=none;align=center;verticalAlign=middle;whiteSpace=wrap;rounded=0;" parent="1" vertex="1">
          <mxGeometry x="160" y="650" width="40" height="20" as="geometry" />
        </mxCell>
        <mxCell id="g0MrRFJYeRkFoFixMZTk-28" value="是" style="text;html=1;strokeColor=none;fillColor=none;align=center;verticalAlign=middle;whiteSpace=wrap;rounded=0;" parent="1" vertex="1">
          <mxGeometry x="230" y="500" width="40" height="20" as="geometry" />
        </mxCell>
      </root>
    </mxGraphModel>
  </diagram>
</mxfile>
